<?xml version="1.0" encoding="UTF-8" standalone="no"?><!-- Generator: Gravit.io --><svg xmlns="http://www.w3.org/2000/svg" xmlns:xlink="http://www.w3.org/1999/xlink" style="isolation:isolate" viewBox="0 0 400 400" width="400pt" height="400pt"><defs><clipPath id="_clipPath_m6aTr583RscObPByItXmjUBEV58O9UzJ"><rect width="400" height="400"/></clipPath></defs><g clip-path="url(#_clipPath_m6aTr583RscObPByItXmjUBEV58O9UzJ)"><circle vector-effect="non-scaling-stroke" cx="200.00000000000003" cy="200.00000000000003" r="199.99999999999994" fill="rgb(0,0,0)" fill-opacity="0.25"/><path d=" M 295.14 58 L 104.861 58 C 88.815 58 75.75 71.064 75.75 87.252 L 75.75 279.236 C 75.75 295.425 88.814 308.488 104.86 308.488 L 265.889 308.488 L 258.362 282.218 L 276.538 299.116 L 293.72 315.02 L 324.25 342 L 324.25 87.252 C 324.25 71.064 311.186 58 295.14 58 Z  M 240.328 243.453 C 240.328 243.453 235.216 237.346 230.956 231.95 C 249.558 226.696 256.658 215.052 256.658 215.052 C 250.836 218.887 245.298 221.585 240.328 223.429 C 233.228 226.412 226.412 228.399 219.738 229.536 C 206.106 232.092 193.61 231.382 182.96 229.394 C 174.866 227.832 167.908 225.56 162.086 223.289 C 158.82 222.01 155.27 220.448 151.719 218.46 C 151.294 218.176 150.868 218.034 150.442 217.75 C 150.158 217.608 150.016 217.466 149.874 217.325 C 147.318 215.905 145.898 214.911 145.898 214.911 C 145.898 214.911 152.714 226.271 170.748 231.666 C 166.488 237.063 161.234 243.452 161.234 243.452 C 129.851 242.458 117.924 221.869 117.924 221.869 C 117.924 176.144 138.372 139.082 138.372 139.082 C 158.82 123.746 178.274 124.172 178.274 124.172 L 179.694 125.877 C 154.134 133.259 142.348 144.478 142.348 144.478 C 142.348 144.478 145.472 142.775 150.725 140.36 C 165.92 133.686 177.99 131.841 182.96 131.414 C 183.812 131.272 184.522 131.13 185.374 131.13 C 194.89 129.89 204.52 129.795 214.059 130.847 C 227.548 132.408 242.032 136.384 256.8 144.478 C 256.8 144.478 245.582 133.829 221.442 126.444 L 223.43 124.173 C 223.43 124.173 242.884 123.746 263.332 139.083 C 263.332 139.083 283.781 176.144 283.781 221.869 C 283.781 221.869 271.71 242.458 240.328 243.452 L 240.328 243.453 Z  M 174.298 177.138 C 166.204 177.138 159.815 184.238 159.815 192.9 C 159.815 201.562 166.346 208.662 174.298 208.662 C 182.392 208.662 188.782 201.562 188.782 192.9 C 188.924 184.238 182.392 177.138 174.299 177.138 M 226.128 177.138 C 218.034 177.138 211.644 184.238 211.644 192.9 C 211.644 201.562 218.176 208.662 226.128 208.662 C 234.222 208.662 240.611 201.562 240.611 192.9 C 240.611 184.238 234.222 177.138 226.128 177.138 Z " fill="rgb(114,137,218)"/></g></svg>