<?xml version="1.0" encoding="UTF-8" standalone="no"?><!-- Generator: Gravit.io --><svg xmlns="http://www.w3.org/2000/svg" xmlns:xlink="http://www.w3.org/1999/xlink" style="isolation:isolate" viewBox="0 0 400 400" width="400pt" height="400pt"><defs><clipPath id="_clipPath_QxNi0yd3BvjIZVTQcJaIluGQ6NpyvGUW"><rect width="400" height="400"/></clipPath></defs><g clip-path="url(#_clipPath_QxNi0yd3BvjIZVTQcJaIluGQ6NpyvGUW)"><circle vector-effect="non-scaling-stroke" cx="200.00000000000003" cy="200.00000000000003" r="199.99999999999994" fill="rgb(0,0,0)" fill-opacity="0.25"/><path d=" M 253.29 360.633 L 251.768 360.633 L 250.245 359.11 L 250.245 349.974 L 250.245 311.91 C 250.245 301.252 248.723 292.116 244.155 284.503 C 279.174 278.413 317.239 260.142 317.239 191.626 C 317.239 173.355 311.149 156.606 300.49 142.903 C 303.536 133.768 305.058 117.019 297.445 95.703 L 292.878 91.135 C 292.878 91.135 289.832 89.613 286.787 89.613 C 277.652 89.613 263.948 92.658 241.11 107.884 C 228.929 106.361 215.226 103.316 200 103.316 C 184.774 103.316 171.071 104.839 157.368 107.884 C 136.052 94.18 120.826 91.135 111.69 91.135 C 108.645 91.135 107.122 92.658 105.6 92.658 C 104.077 92.658 101.032 95.703 101.032 97.226 C 93.419 118.542 94.942 135.29 97.987 144.426 C 87.329 158.129 81.239 174.877 81.239 193.148 C 81.239 260.142 120.826 278.413 154.323 286.026 C 152.8 289.071 151.277 293.639 149.755 298.207 C 146.71 299.729 142.142 301.252 136.052 301.252 C 129.961 301.252 123.871 299.729 119.303 295.161 L 117.781 293.639 C 116.258 292.116 116.258 290.594 114.735 290.594 L 113.213 289.071 L 111.69 287.549 C 111.69 286.026 99.51 267.755 78.193 266.232 C 70.58 266.232 64.49 269.278 62.968 273.845 C 59.922 281.458 69.058 287.549 73.626 290.594 C 73.626 290.594 82.761 295.161 88.851 311.91 C 91.897 322.568 105.6 342.362 137.574 342.362 L 148.232 342.362 L 148.232 363.678 L 146.71 365.2 C 146.71 365.2 145.187 365.2 146.71 365.2 C 78.193 337.794 32.516 273.845 32.516 202.284 C 32.516 109.406 107.122 34.8 200 34.8 C 292.878 34.8 367.484 109.406 367.484 202.284 C 367.484 273.845 321.807 337.794 253.29 360.633 Z " fill="rgb(255,255,255)"/></g></svg>