<?xml version="1.0" encoding="UTF-8" standalone="no"?><!-- Generator: Gravit.io --><svg xmlns="http://www.w3.org/2000/svg" xmlns:xlink="http://www.w3.org/1999/xlink" style="isolation:isolate" viewBox="0 0 400 400" width="400pt" height="400pt"><defs><clipPath id="_clipPath_pGtEDm0DbeOX6FQarE2ytWW7EhLxYgrD"><rect width="400" height="400"/></clipPath></defs><g clip-path="url(#_clipPath_pGtEDm0DbeOX6FQarE2ytWW7EhLxYgrD)"><circle vector-effect="non-scaling-stroke" cx="200.00000000000003" cy="200.00000000000003" r="199.99999999999994" fill="rgb(0,0,0)" fill-opacity="0.25"/><g><path d=" M 358 101.997 C 346.373 107.153 333.878 110.638 320.764 112.206 C 334.15 104.182 344.429 91.476 349.27 76.338 C 336.744 83.767 322.869 89.162 308.102 92.071 C 296.275 79.471 279.426 71.597 260.78 71.597 C 224.975 71.597 195.946 100.624 195.946 136.427 C 195.946 141.508 196.521 146.456 197.626 151.201 C 143.744 148.497 95.974 122.687 63.998 83.464 C 58.418 93.039 55.221 104.176 55.221 116.057 C 55.221 138.549 66.667 158.393 84.063 170.018 C 73.435 169.682 63.439 166.766 54.697 161.91 C 54.692 162.18 54.692 162.452 54.692 162.725 C 54.692 194.136 77.04 220.34 106.698 226.295 C 101.257 227.776 95.53 228.568 89.617 228.568 C 85.439 228.568 81.378 228.162 77.42 227.405 C 85.669 253.163 109.612 271.906 137.981 272.43 C 115.793 289.817 87.839 300.182 57.465 300.182 C 52.233 300.182 47.072 299.875 42 299.277 C 70.691 317.671 104.769 328.403 141.381 328.403 C 260.628 328.403 325.837 229.615 325.837 143.944 C 325.837 141.133 325.775 138.337 325.65 135.557 C 338.316 126.417 349.308 114.998 358 101.997 Z " fill="rgb(85,172,238)"/></g></g></svg>