<?xml version="1.0" encoding="UTF-8" standalone="no"?><!-- Generator: Gravit.io --><svg xmlns="http://www.w3.org/2000/svg" xmlns:xlink="http://www.w3.org/1999/xlink" style="isolation:isolate" viewBox="0 0 400 400" width="400pt" height="400pt"><defs><clipPath id="_clipPath_IlTgtVNq4UOWFP4bF95SZ6bOweXx0OOE"><rect width="400" height="400"/></clipPath></defs><g clip-path="url(#_clipPath_IlTgtVNq4UOWFP4bF95SZ6bOweXx0OOE)"><circle vector-effect="non-scaling-stroke" cx="200.00000000000003" cy="200.00000000000003" r="199.99999999999994" fill="rgb(0,0,0)" fill-opacity="0.25"/><g><g><g><path d=" M 328.658 75.331 L 318.515 66.355 C 307.473 56.571 293.261 51.181 278.492 51.181 C 261.209 51.181 244.738 58.578 233.303 71.477 L 204.272 104.239 C 200.533 108.449 198.66 113.867 199 119.488 C 199.341 125.101 201.843 130.251 206.054 133.985 L 208.771 136.398 C 212.629 139.824 217.6 141.709 222.76 141.709 L 224.018 141.673 C 229.631 141.336 234.785 138.833 238.531 134.616 L 267.569 101.852 C 272.678 96.085 282.37 95.506 288.146 100.611 L 298.286 109.606 C 301.194 112.18 302.922 115.742 303.158 119.639 C 303.394 123.533 302.103 127.273 299.522 130.177 L 236.015 201.816 C 231.739 206.646 224.149 208.04 218.418 205.087 C 209.492 200.483 197.854 202.681 191.233 210.143 L 190.735 210.71 C 186.098 215.927 184.166 222.859 185.423 229.758 C 186.693 236.616 190.964 242.497 197.153 245.736 C 205.717 250.213 215.379 252.674 225.09 252.674 L 225.098 252.674 C 242.373 252.674 258.851 245.18 270.292 232.276 L 333.792 160.598 C 355.863 135.695 353.571 97.423 328.658 75.331 Z " fill="rgb(110,255,88)"/><path d=" M 191.207 263.827 C 182.836 256.415 168.9 257.248 161.46 265.626 L 132.435 298.381 C 127.327 304.145 117.641 304.742 111.871 299.632 L 101.72 290.627 C 98.813 288.051 97.084 284.488 96.849 280.594 C 96.612 276.707 97.903 272.968 100.483 270.064 L 163.983 198.43 C 168.194 193.674 175.648 192.238 181.312 195.021 C 190.572 199.582 202.354 197.359 209.513 189.255 C 214.065 184.126 215.977 177.315 214.771 170.599 C 213.573 163.844 209.414 158.113 203.37 154.882 C 194.673 150.225 184.83 147.763 174.914 147.763 C 157.631 147.763 141.16 155.163 129.725 168.065 L 66.217 239.686 C 44.133 264.59 46.432 302.813 71.337 324.897 L 81.481 333.765 C 92.517 343.551 106.729 348.819 121.498 348.819 C 121.504 348.819 121.498 348.819 121.504 348.819 C 138.788 348.819 155.265 341.538 166.706 328.636 L 195.726 295.948 C 199.472 291.73 201.346 286.338 201.004 280.749 C 200.677 275.195 198.104 269.913 193.938 266.231 L 191.207 263.827 Z " fill="rgb(110,255,88)"/></g></g></g></g></svg>