<?xml version="1.0" encoding="UTF-8" standalone="no"?><!-- Generator: Gravit.io --><svg xmlns="http://www.w3.org/2000/svg" xmlns:xlink="http://www.w3.org/1999/xlink" style="isolation:isolate" viewBox="0 0 400 400" width="400pt" height="400pt"><defs><clipPath id="_clipPath_IwRR4qHXhXudPl2i9P2WaG4X64xSrU03"><rect width="400" height="400"/></clipPath></defs><g clip-path="url(#_clipPath_IwRR4qHXhXudPl2i9P2WaG4X64xSrU03)"><circle vector-effect="non-scaling-stroke" cx="200.00000000000003" cy="200.00000000000003" r="199.99999999999994" fill="rgb(0,0,0)" fill-opacity="0.25"/><g><path d=" M 253.99 196.675 C 224.191 180.75 195.658 166.11 166.493 150.825 L 166.493 242.265 C 197.184 225.581 229.533 210.302 254.116 196.675 L 253.99 196.675 Z " fill="rgb(255,255,255)"/><path d=" M 253.99 196.675 C 224.191 180.75 166.493 150.825 166.493 150.825 L 243.42 202.53 C 243.426 202.53 229.406 210.302 253.99 196.675 Z " fill="rgb(232,224,224)"/><path d=" M 172.1 313.844 C 110.205 312.704 89.065 311.679 76.071 309.002 C 67.28 307.223 59.64 303.274 54.039 297.546 C 49.709 293.21 46.267 286.596 43.595 277.419 C 41.304 269.773 40.412 263.412 39.139 247.873 C 37.192 212.804 36.728 184.133 39.139 152.097 C 41.129 134.406 42.094 113.405 55.311 101.152 C 61.552 95.418 68.812 91.728 76.964 90.203 C 89.698 87.785 143.954 85.873 200.12 85.873 C 256.16 85.873 310.536 87.785 323.283 90.203 C 333.467 92.114 343.018 97.842 348.626 105.229 C 360.685 124.198 360.896 147.786 362.12 166.237 C 362.627 175.028 362.627 224.948 362.12 233.739 C 360.215 262.899 358.683 273.216 354.354 283.913 C 351.677 290.666 349.391 294.229 345.436 298.179 C 339.232 304.256 331.324 308.299 322.764 309.768 C 269.202 313.796 223.72 314.67 172.1 313.844 Z  M 254.122 196.675 C 224.323 180.75 195.791 165.984 166.625 150.698 L 166.625 242.145 C 197.316 225.461 229.672 210.175 254.249 196.548 L 254.122 196.675 Z " fill="rgb(205,32,31)"/></g></g></svg>