<?xml version="1.0" encoding="UTF-8" standalone="no"?><!-- Generator: Gravit.io --><svg xmlns="http://www.w3.org/2000/svg" xmlns:xlink="http://www.w3.org/1999/xlink" style="isolation:isolate" viewBox="0 0 283.465 283.465" width="283.465pt" height="283.465pt"><defs><clipPath id="_clipPath_Q9fjC80ohtPNNXKQebOieNXPkYFEF0bF"><rect width="283.465" height="283.465"/></clipPath></defs><g clip-path="url(#_clipPath_Q9fjC80ohtPNNXKQebOieNXPkYFEF0bF)"><path d="M 8.504 110.472 L 274.961 110.472 C 279.654 110.472 283.465 114.283 283.465 118.976 L 283.465 158.661 C 283.465 163.355 279.654 167.165 274.961 167.165 L 8.504 167.165 C 3.81 167.165 0 163.355 0 158.661 L 0 118.976 C 0 114.283 3.81 110.472 8.504 110.472 Z" style="stroke:none;fill:#E39696;stroke-miterlimit:10;"/><path d="M 9.82 0 L 273.645 0 C 279.065 0 283.465 4.4 283.465 9.82 L 283.465 46.873 C 283.465 52.293 279.065 56.693 273.645 56.693 L 9.82 56.693 C 4.4 56.693 0 52.293 0 46.873 L 0 9.82 C 0 4.4 4.4 0 9.82 0 Z" style="stroke:none;fill:#CA870A;stroke-miterlimit:10;"/><path d="M 9.82 226.772 L 273.645 226.772 C 279.065 226.772 283.465 231.172 283.465 236.591 L 283.465 273.645 C 283.465 279.065 279.065 283.465 273.645 283.465 L 9.82 283.465 C 4.4 283.465 0 279.065 0 273.645 L 0 236.591 C 0 231.172 4.4 226.772 9.82 226.772 Z" style="stroke:none;fill:#CA870A;stroke-miterlimit:10;"/></g></svg>